<svg width="1012" height="360" viewBox="0 0 1012 360" fill="none" xmlns="http://www.w3.org/2000/svg">
<path d="M996.667 3.8667C950.133 18.2667 912.4 43.0667 852.8 98.4001C813.067 135.2 785.333 165.6 711.2 253.467C661.067 312.667 646.667 328.933 636.667 337.333C629.333 343.333 622.8 347.2 621.733 346.133C620 344.4 642.933 309.733 669.2 274.667C724.4 200.933 800.667 110.4 892.8 9.4667C901.6 -0.133303 902.267 3.00775e-05 880.133 7.60003C850 18.1334 812.8 39.6 781.333 64.6667C741.733 96.2667 698.133 141.6 638.667 212.667C579.467 283.467 557.867 304.267 519.067 327.467C495.6 341.6 475.867 347.333 453.6 346.4C442.133 346 439.333 345.333 432.667 342C428.4 339.733 424.133 336.667 422.933 334.933C421.067 332 421.067 332 426.533 332C433.333 332 438.533 329.467 443.2 324C446 320.667 446.667 318.4 446.667 313.067C446.667 306.933 446.133 305.867 440.8 300.533C434.933 294.667 432.533 293.867 423.333 294.533C409.867 295.733 400 310.8 402.8 326C404.667 335.867 409.6 343.067 418.8 349.2C432.267 358.133 448.133 361.2 468.4 358.667C517.867 352.533 568.667 315.867 630 242C640.933 228.8 657.067 209.333 666 198.667C729.867 122 799.2 59.2 850 32C862.8 25.0667 863.2 24.6667 837.333 46C783.467 90.5334 679.2 206 636.133 268.667C624.267 286 613.333 304.933 608.667 316.667C604 328.267 602.667 342.933 605.733 348.8C611.467 359.733 620.933 362 633.333 355.2C644.667 349.067 657.2 335.333 740.667 237.333C786.133 183.867 808.667 159.2 841.2 126.667C891.733 76.2667 925.733 48.6667 960.667 30C971.333 24.4 971.6 24.1334 945.867 46C888 95.3334 818.267 168.933 774.4 227.067C751.2 257.867 733.467 287.6 726.533 308C722.267 320.533 721.6 336.533 725.067 344.267C731.6 359.067 748.4 362.933 768.533 354.4C784.133 347.733 807.6 331.733 829.733 312.8L840.133 303.867L837.2 299.867C835.333 297.2 833.867 296.267 832.933 297.067C832 297.733 826.533 302 820.667 306.667C796.933 325.467 771.2 340.667 756.133 344.8C749.467 346.667 747.467 346.8 744 345.333C735.867 342 737.467 333.6 750.667 311.6C781.467 259.867 912 102.8 998.267 13.6C1005.47 6.13336 1010.8 3.00775e-05 1010 0.133363C1009.33 0.133363 1003.33 1.8667 996.667 3.8667Z" fill="white"/>
<path d="M264 2.80015C225.867 4.93348 185.2 14.0002 151.067 28.1335C85.3333 55.3335 42.8 107.467 42.6666 160.933C42.6666 193.2 65.2 222.8 98.1333 233.6C114.933 239.2 129.867 240.667 152.267 238.8C187.733 235.867 214 228.667 244.667 213.467C270.933 200.533 286.133 190 302.8 173.333C314.8 161.467 317.733 157.6 322.4 148C328.4 135.733 331.333 122 329.867 113.6C327.6 101.067 315.733 85.8668 303.2 79.6001C290.133 73.0668 272.667 71.6001 251.2 75.3335C203.333 83.7335 150.533 118.267 111.733 166.667C106.133 173.733 90.6667 196.133 90.6667 197.333C90.6667 197.733 92.4 199.067 94.5333 200.4L98.5333 202.667L102.8 196.4C122.667 166.933 152.533 137.067 180.667 118.4C223.467 90.0001 272.267 78.0001 296.667 90.0001C309.067 96.0001 317.333 108 317.333 119.6C317.333 134.667 309.733 149.2 293.467 165.467C266.933 191.867 223.2 214.133 181.333 222.667C162 226.667 125.867 227.733 112.267 224.8C86.4 219.333 64.5333 199.733 60.6666 178.667C59.3333 171.467 63.3333 155.067 69.3333 143.333C83.8667 114.533 116.133 80.5335 151.6 56.9335C193.333 29.0668 239.2 14.8002 287.2 14.6668C350.933 14.5335 403.733 42.2668 426.533 87.6001C428.8 92.1335 430.667 96.4001 430.667 97.0668C430.667 97.7335 426.933 100.933 422.4 104C385.067 129.867 350.8 164.8 289.467 239.333C253.467 283.067 231.733 302.8 202.667 317.867C189.333 324.8 161.467 334.667 155.333 334.667C153.733 334.667 143.467 331.6 132.533 327.867C96.9333 315.733 74 311.467 46 311.333C22.4 311.333 12.9333 313.467 5.73331 320.667C2.13331 324.267 1.33331 326.133 1.33331 330.533C1.33331 339.2 4.26665 343.333 13.6 347.867C28 354.933 38.4 356.533 70.6666 356.533C98.8 356.4 108.4 355.6 132.933 351.067C144.933 348.933 145.333 348.933 154.933 351.733C184.267 360.4 225.467 360.933 263.333 353.2C308.667 343.733 355.733 316 388.267 279.333C415.067 249.2 436.267 209.067 444.8 172.133C449.467 152 450.533 125.6 447.067 112.4L444.533 102.8L458.933 94.0001C484.267 78.5335 496 70.6668 496 68.9335C495.867 68.1335 495.2 66.0001 494.267 64.4001C492.533 61.3335 492.533 61.3335 473.6 71.8668C463.2 77.6001 451.467 84.8001 447.467 87.8668L440.133 93.3335L438.133 86.9335C432.4 70.0001 413.867 46.1335 396.667 34.0001C363.867 10.6668 317.333 -0.266515 264 2.80015ZM436.133 134C436.267 162.4 430.133 185.733 414.533 217.067C395.867 254.933 375.2 279.867 343.2 303.6C315.733 323.867 284.933 337.467 252.667 343.467C238.4 346.133 203.867 346.267 190.667 343.733L182.133 342L201.333 334.933C238.267 321.333 267.333 305.067 290.667 284.933C310.933 267.467 327.6 244.933 364.667 184.667C375.333 167.2 380.533 160.4 392.933 147.333C401.2 138.533 413.867 126.133 421.067 119.867L434 108.4L435.067 112.533C435.6 114.8 436.133 124.4 436.133 134ZM62.6666 325.467C81.0667 327.067 105.6 331.867 121.867 336.933C133.6 340.533 133.733 340.667 129.2 341.733C121.333 343.733 49.3333 344.533 39.0666 342.667C24.8 340.267 12.6666 334 14.1333 330C16.2666 324.533 34.2666 322.8 62.6666 325.467Z" fill="white"/>
</svg>
